<svg width="128" height="129" viewBox="0 0 128 129" fill="none" xmlns="http://www.w3.org/2000/svg">
<path d="M98.8447 103.544C101.424 103.544 103.522 101.446 103.522 98.8658C103.522 96.286 101.424 94.188 98.8447 94.188C98.0221 94.188 97.2123 94.405 96.5026 94.816L98.8447 103.544ZM98.8447 103.544C96.2649 103.544 94.1669 101.446 94.1669 98.8658M98.8447 103.544L94.1669 98.8658M94.1669 98.8658C94.1669 97.2012 95.0616 95.6504 96.5025 94.816L94.1669 98.8658ZM98.3402 97.989L98.3399 97.9892C98.0278 98.1698 97.8336 98.507 97.8336 98.8658C97.8336 99.4229 98.2876 99.8769 98.8447 99.8769C99.4018 99.8769 99.8558 99.4229 99.8558 98.8658C99.8558 98.3087 99.4018 97.8547 98.8447 97.8547C98.6653 97.8547 98.491 97.9016 98.3402 97.989Z" fill="black" stroke="black"/>
<path d="M85.1242 94.816L85.1242 94.816C85.834 94.405 86.6437 94.188 87.4663 94.188C90.0461 94.188 92.144 96.286 92.144 98.8658C92.144 101.446 90.0461 103.544 87.4663 103.544C84.8865 103.544 82.7885 101.446 82.7885 98.8658C82.7885 97.2012 83.6832 95.6504 85.1242 94.816ZM86.9618 97.989L86.9616 97.9891C86.6493 98.17 86.4552 98.507 86.4552 98.8658C86.4552 99.4229 86.9092 99.8769 87.4663 99.8769C88.0234 99.8769 88.4774 99.4229 88.4774 98.8658C88.4774 98.3087 88.0234 97.8547 87.4663 97.8547C87.2869 97.8547 87.1126 97.9016 86.9618 97.989Z" fill="black" stroke="black"/>
<path d="M73.7462 94.816L73.7462 94.816C74.4561 94.405 75.2657 94.188 76.0883 94.188C78.6681 94.188 80.7661 96.286 80.7661 98.8658C80.7661 101.446 78.6681 103.544 76.0883 103.544C73.5085 103.544 71.4106 101.446 71.4106 98.8658C71.4106 97.2012 72.3052 95.6504 73.7462 94.816ZM75.5839 97.989L75.5837 97.9891C75.2714 98.17 75.0772 98.507 75.0772 98.8658C75.0772 99.4229 75.5312 99.8769 76.0883 99.8769C76.6454 99.8769 77.0994 99.4229 77.0994 98.8658C77.0994 98.3087 76.6454 97.8547 76.0883 97.8547C75.909 97.8547 75.7346 97.9016 75.5839 97.989Z" fill="black" stroke="black"/>
<path d="M62.3693 94.816L62.3693 94.816C63.0791 94.405 63.8888 94.188 64.7114 94.188C67.2912 94.188 69.3892 96.286 69.3892 98.8658C69.3892 101.446 67.2912 103.544 64.7114 103.544C62.1316 103.544 60.0336 101.446 60.0336 98.8658C60.0336 97.2012 60.9283 95.6504 62.3693 94.816ZM64.2069 97.989L64.2068 97.9891C63.8944 98.17 63.7003 98.507 63.7003 98.8658C63.7003 99.4229 64.1543 99.8769 64.7114 99.8769C65.2685 99.8769 65.7225 99.4229 65.7225 98.8658C65.7225 98.3087 65.2685 97.8547 64.7114 97.8547C64.532 97.8547 64.3577 97.9016 64.2069 97.989Z" fill="black" stroke="black"/>
<path d="M97.422 76.5207H95.9998C94.9873 76.5207 94.1665 75.6998 94.1665 74.6873C94.1665 73.6748 94.9873 72.854 95.9998 72.854H97.422C98.4345 72.854 99.2554 73.6748 99.2554 74.6873C99.2554 75.6998 98.4345 76.5207 97.422 76.5207Z" fill="black" stroke="black"/>
<path d="M97.422 80.7882H95.9998C94.9873 80.7882 94.1665 79.9674 94.1665 78.9549C94.1665 77.9424 94.9873 77.1216 95.9998 77.1216H97.422C98.4345 77.1216 99.2554 77.9424 99.2554 78.9549C99.2554 79.9674 98.4345 80.7882 97.422 80.7882Z" fill="black" stroke="black"/>
<mask id="path-7-outside-1_17_725" maskUnits="userSpaceOnUse" x="17.7109" y="19.7324" width="92" height="90" fill="black">
<rect fill="white" x="17.7109" y="19.7324" width="92" height="90"/>
<path d="M19.8544 66.904L42.5269 24.0622C43.3996 22.1027 45.3644 20.7324 47.6443 20.7324C49.5536 20.7324 51.2421 21.6937 52.2533 23.157C52.2556 23.16 52.2581 23.1625 52.2604 23.1655L73.9557 52.0812C74.2555 52.0423 74.5595 52.0213 74.8667 52.0213H84.622C88.494 52.0213 91.6443 55.1715 91.6443 59.0435V67.6658H100.266C102.57 67.6658 104.444 69.5399 104.444 71.8435V81.7991C104.444 84.1027 102.57 85.9769 100.266 85.9769H90.3109H88.7998V88.9991H98.8443C104.285 88.9991 108.711 93.4252 108.711 98.8658C108.711 104.306 104.285 108.732 98.8443 108.732H64.7109C59.2704 108.732 54.8443 104.306 54.8443 98.8658C54.8443 93.4252 59.2704 88.9991 64.7109 88.9991H74.7554V85.9769H63.2887C62.5524 85.9769 61.9554 85.3799 61.9554 84.6435V80.2882L60.4441 80.288C60.4261 80.288 60.4087 80.286 60.3909 80.2853C60.3632 80.2842 60.3353 80.2839 60.3079 80.281C60.2939 80.2796 60.2805 80.2766 60.2667 80.2748C60.2363 80.2707 60.2055 80.267 60.1758 80.261C60.1516 80.256 60.1282 80.2489 60.1045 80.2426C60.0857 80.2377 60.0665 80.2338 60.048 80.2281C60.0334 80.2234 60.0196 80.2174 60.0052 80.2124C59.9783 80.2032 59.9515 80.1943 59.9255 80.1833C59.9225 80.182 59.9196 80.1802 59.9164 80.179C59.84 80.1459 59.7671 80.1065 59.699 80.0604C59.682 80.0489 59.666 80.0357 59.6494 80.0234C59.6316 80.0103 59.6133 79.9978 59.5963 79.9838C59.5781 79.9689 59.5614 79.9523 59.5442 79.9365C59.53 79.9235 59.5152 79.9113 59.5015 79.8978C59.4891 79.8853 59.478 79.8718 59.4661 79.8588C59.4491 79.8403 59.4315 79.8224 59.4155 79.803C59.4096 79.7959 59.4046 79.7881 59.3989 79.7808C59.3781 79.7545 59.3575 79.7282 59.3388 79.7002C59.3303 79.6876 59.3232 79.6741 59.315 79.6611C59.3003 79.6378 59.2853 79.6147 59.272 79.5904C59.1973 79.453 59.1476 79.3002 59.1252 79.1388C59.1168 79.0786 59.1109 79.0174 59.1109 78.9548V73.8661C59.1109 71.3482 59.8491 68.9102 61.2459 66.8151L63.3589 63.6457L48.7108 39.0531L27.0761 71.0986C26.5708 71.9641 25.7637 72.6318 24.7998 72.9575V75.1591L25.1888 74.1911C25.3207 73.8629 25.5774 73.6007 25.9026 73.4618C26.2279 73.3228 26.595 73.3191 26.923 73.4508L45.1445 80.7708L48.2837 78.1827C48.8519 77.7143 49.6923 77.7952 50.1607 78.3634C50.6292 78.9315 50.5483 79.7719 49.9801 80.2403L40.1387 88.3538C38.3406 89.8361 36.1156 90.6082 33.8626 90.6082C32.6227 90.6082 31.3742 90.3742 30.1842 89.8962L25.6468 88.0734C23.6905 87.2874 22.4206 85.5148 22.1776 83.5573C22.1497 83.4498 22.1331 83.3376 22.1331 83.2213V72.9575C20.4816 72.3996 19.2887 70.8366 19.2887 68.9991C19.2887 68.2359 19.4955 67.5203 19.8544 66.904ZM91.6443 83.3102H100.266C101.1 83.3102 101.778 82.6323 101.778 81.7991V71.8435C101.778 71.0103 101.1 70.3324 100.266 70.3324H91.6443V83.3102ZM26.6409 85.5989L31.1783 87.4217C33.6245 88.4046 36.408 87.9733 38.4423 86.296L42.8007 82.7029L27.1662 76.4222L25.0124 81.7834C24.4094 83.2844 25.1401 84.9961 26.6409 85.5989ZM47.6443 23.3991C46.5468 23.3991 45.5897 24.0058 45.0868 24.9004C45.0668 24.9532 45.0448 25.0055 45.0178 25.0567L44.9319 25.219C44.7902 25.5626 44.7109 25.9383 44.7109 26.3324C44.7109 26.8867 44.8683 27.4037 45.1365 27.8464C45.1451 27.8595 45.1543 27.8718 45.1625 27.8853L45.2183 27.979C45.7467 28.755 46.6368 29.2658 47.6443 29.2658C49.2617 29.2658 50.5776 27.9498 50.5776 26.3324C50.5776 24.715 49.2617 23.3991 47.6443 23.3991ZM64.7109 91.6658C60.7408 91.6658 57.5109 94.8956 57.5109 98.8658C57.5109 102.836 60.7408 106.066 64.7109 106.066H98.8443C102.814 106.066 106.044 102.836 106.044 98.8658C106.044 94.8956 102.814 91.6658 98.8443 91.6658H64.7109ZM86.1332 88.9991V85.9769H77.422V88.9991H86.1332ZM64.622 83.3102H88.9776V69.006C88.9776 69.0037 88.9772 69.0016 88.9772 68.9991C88.9772 68.9966 88.9776 68.9945 88.9776 68.9922V59.0435C88.9776 57.1068 87.7067 55.462 85.9554 54.8976V74.0494C85.9554 75.6359 85.0187 77.0773 83.5691 77.7216C79.7376 79.4245 75.6692 80.288 71.4763 80.288H64.622V83.3102ZM61.7776 73.8659V77.6213H71.4763C73.0656 77.6213 74.6348 77.483 76.1776 77.2121V59.0435C76.1776 58.3072 76.7746 57.7102 77.5109 57.7102C78.2473 57.7102 78.8443 58.3072 78.8443 59.0435V76.6016C80.0804 76.2515 81.296 75.8137 82.4859 75.2848C82.9735 75.0681 83.2887 74.5831 83.2887 74.0494V54.688H74.8665C73.4069 54.688 72.0521 55.4131 71.2425 56.6275L63.4645 68.2942C62.3609 69.9497 61.7776 71.8764 61.7776 73.8659ZM64.998 61.1868L69.0238 55.1482C69.622 54.2508 70.4064 53.5216 71.3056 52.9923L52.8494 28.3938C52.0267 30.4642 50.0043 31.9324 47.6443 31.9324C47.6201 31.9324 47.5961 31.9308 47.5721 31.9306L64.998 61.1868ZM26.8899 66.6087L47.2025 36.5212L42.9388 29.3632C42.9019 29.3059 42.8654 29.2483 42.8304 29.1897L23.9577 64.8514C25.1689 64.9938 26.2226 65.656 26.8899 66.6087ZM23.4665 70.5102C24.2997 70.5102 24.9776 69.8323 24.9776 68.9991C24.9776 68.1658 24.2997 67.488 23.4665 67.488C22.6332 67.488 21.9554 68.1658 21.9554 68.9991C21.9554 69.8323 22.6332 70.5102 23.4665 70.5102Z"/>
</mask>
<path d="M19.8544 66.904L42.5269 24.0622C43.3996 22.1027 45.3644 20.7324 47.6443 20.7324C49.5536 20.7324 51.2421 21.6937 52.2533 23.157C52.2556 23.16 52.2581 23.1625 52.2604 23.1655L73.9557 52.0812C74.2555 52.0423 74.5595 52.0213 74.8667 52.0213H84.622C88.494 52.0213 91.6443 55.1715 91.6443 59.0435V67.6658H100.266C102.57 67.6658 104.444 69.5399 104.444 71.8435V81.7991C104.444 84.1027 102.57 85.9769 100.266 85.9769H90.3109H88.7998V88.9991H98.8443C104.285 88.9991 108.711 93.4252 108.711 98.8658C108.711 104.306 104.285 108.732 98.8443 108.732H64.7109C59.2704 108.732 54.8443 104.306 54.8443 98.8658C54.8443 93.4252 59.2704 88.9991 64.7109 88.9991H74.7554V85.9769H63.2887C62.5524 85.9769 61.9554 85.3799 61.9554 84.6435V80.2882L60.4441 80.288C60.4261 80.288 60.4087 80.286 60.3909 80.2853C60.3632 80.2842 60.3353 80.2839 60.3079 80.281C60.2939 80.2796 60.2805 80.2766 60.2667 80.2748C60.2363 80.2707 60.2055 80.267 60.1758 80.261C60.1516 80.256 60.1282 80.2489 60.1045 80.2426C60.0857 80.2377 60.0665 80.2338 60.048 80.2281C60.0334 80.2234 60.0196 80.2174 60.0052 80.2124C59.9783 80.2032 59.9515 80.1943 59.9255 80.1833C59.9225 80.182 59.9196 80.1802 59.9164 80.179C59.84 80.1459 59.7671 80.1065 59.699 80.0604C59.682 80.0489 59.666 80.0357 59.6494 80.0234C59.6316 80.0103 59.6133 79.9978 59.5963 79.9838C59.5781 79.9689 59.5614 79.9523 59.5442 79.9365C59.53 79.9235 59.5152 79.9113 59.5015 79.8978C59.4891 79.8853 59.478 79.8718 59.4661 79.8588C59.4491 79.8403 59.4315 79.8224 59.4155 79.803C59.4096 79.7959 59.4046 79.7881 59.3989 79.7808C59.3781 79.7545 59.3575 79.7282 59.3388 79.7002C59.3303 79.6876 59.3232 79.6741 59.315 79.6611C59.3003 79.6378 59.2853 79.6147 59.272 79.5904C59.1973 79.453 59.1476 79.3002 59.1252 79.1388C59.1168 79.0786 59.1109 79.0174 59.1109 78.9548V73.8661C59.1109 71.3482 59.8491 68.9102 61.2459 66.8151L63.3589 63.6457L48.7108 39.0531L27.0761 71.0986C26.5708 71.9641 25.7637 72.6318 24.7998 72.9575V75.1591L25.1888 74.1911C25.3207 73.8629 25.5774 73.6007 25.9026 73.4618C26.2279 73.3228 26.595 73.3191 26.923 73.4508L45.1445 80.7708L48.2837 78.1827C48.8519 77.7143 49.6923 77.7952 50.1607 78.3634C50.6292 78.9315 50.5483 79.7719 49.9801 80.2403L40.1387 88.3538C38.3406 89.8361 36.1156 90.6082 33.8626 90.6082C32.6227 90.6082 31.3742 90.3742 30.1842 89.8962L25.6468 88.0734C23.6905 87.2874 22.4206 85.5148 22.1776 83.5573C22.1497 83.4498 22.1331 83.3376 22.1331 83.2213V72.9575C20.4816 72.3996 19.2887 70.8366 19.2887 68.9991C19.2887 68.2359 19.4955 67.5203 19.8544 66.904ZM91.6443 83.3102H100.266C101.1 83.3102 101.778 82.6323 101.778 81.7991V71.8435C101.778 71.0103 101.1 70.3324 100.266 70.3324H91.6443V83.3102ZM26.6409 85.5989L31.1783 87.4217C33.6245 88.4046 36.408 87.9733 38.4423 86.296L42.8007 82.7029L27.1662 76.4222L25.0124 81.7834C24.4094 83.2844 25.1401 84.9961 26.6409 85.5989ZM47.6443 23.3991C46.5468 23.3991 45.5897 24.0058 45.0868 24.9004C45.0668 24.9532 45.0448 25.0055 45.0178 25.0567L44.9319 25.219C44.7902 25.5626 44.7109 25.9383 44.7109 26.3324C44.7109 26.8867 44.8683 27.4037 45.1365 27.8464C45.1451 27.8595 45.1543 27.8718 45.1625 27.8853L45.2183 27.979C45.7467 28.755 46.6368 29.2658 47.6443 29.2658C49.2617 29.2658 50.5776 27.9498 50.5776 26.3324C50.5776 24.715 49.2617 23.3991 47.6443 23.3991ZM64.7109 91.6658C60.7408 91.6658 57.5109 94.8956 57.5109 98.8658C57.5109 102.836 60.7408 106.066 64.7109 106.066H98.8443C102.814 106.066 106.044 102.836 106.044 98.8658C106.044 94.8956 102.814 91.6658 98.8443 91.6658H64.7109ZM86.1332 88.9991V85.9769H77.422V88.9991H86.1332ZM64.622 83.3102H88.9776V69.006C88.9776 69.0037 88.9772 69.0016 88.9772 68.9991C88.9772 68.9966 88.9776 68.9945 88.9776 68.9922V59.0435C88.9776 57.1068 87.7067 55.462 85.9554 54.8976V74.0494C85.9554 75.6359 85.0187 77.0773 83.5691 77.7216C79.7376 79.4245 75.6692 80.288 71.4763 80.288H64.622V83.3102ZM61.7776 73.8659V77.6213H71.4763C73.0656 77.6213 74.6348 77.483 76.1776 77.2121V59.0435C76.1776 58.3072 76.7746 57.7102 77.5109 57.7102C78.2473 57.7102 78.8443 58.3072 78.8443 59.0435V76.6016C80.0804 76.2515 81.296 75.8137 82.4859 75.2848C82.9735 75.0681 83.2887 74.5831 83.2887 74.0494V54.688H74.8665C73.4069 54.688 72.0521 55.4131 71.2425 56.6275L63.4645 68.2942C62.3609 69.9497 61.7776 71.8764 61.7776 73.8659ZM64.998 61.1868L69.0238 55.1482C69.622 54.2508 70.4064 53.5216 71.3056 52.9923L52.8494 28.3938C52.0267 30.4642 50.0043 31.9324 47.6443 31.9324C47.6201 31.9324 47.5961 31.9308 47.5721 31.9306L64.998 61.1868ZM26.8899 66.6087L47.2025 36.5212L42.9388 29.3632C42.9019 29.3059 42.8654 29.2483 42.8304 29.1897L23.9577 64.8514C25.1689 64.9938 26.2226 65.656 26.8899 66.6087ZM23.4665 70.5102C24.2997 70.5102 24.9776 69.8323 24.9776 68.9991C24.9776 68.1658 24.2997 67.488 23.4665 67.488C22.6332 67.488 21.9554 68.1658 21.9554 68.9991C21.9554 69.8323 22.6332 70.5102 23.4665 70.5102Z" fill="black"/>
<path d="M19.8544 66.904L42.5269 24.0622C43.3996 22.1027 45.3644 20.7324 47.6443 20.7324C49.5536 20.7324 51.2421 21.6937 52.2533 23.157C52.2556 23.16 52.2581 23.1625 52.2604 23.1655L73.9557 52.0812C74.2555 52.0423 74.5595 52.0213 74.8667 52.0213H84.622C88.494 52.0213 91.6443 55.1715 91.6443 59.0435V67.6658H100.266C102.57 67.6658 104.444 69.5399 104.444 71.8435V81.7991C104.444 84.1027 102.57 85.9769 100.266 85.9769H90.3109H88.7998V88.9991H98.8443C104.285 88.9991 108.711 93.4252 108.711 98.8658C108.711 104.306 104.285 108.732 98.8443 108.732H64.7109C59.2704 108.732 54.8443 104.306 54.8443 98.8658C54.8443 93.4252 59.2704 88.9991 64.7109 88.9991H74.7554V85.9769H63.2887C62.5524 85.9769 61.9554 85.3799 61.9554 84.6435V80.2882L60.4441 80.288C60.4261 80.288 60.4087 80.286 60.3909 80.2853C60.3632 80.2842 60.3353 80.2839 60.3079 80.281C60.2939 80.2796 60.2805 80.2766 60.2667 80.2748C60.2363 80.2707 60.2055 80.267 60.1758 80.261C60.1516 80.256 60.1282 80.2489 60.1045 80.2426C60.0857 80.2377 60.0665 80.2338 60.048 80.2281C60.0334 80.2234 60.0196 80.2174 60.0052 80.2124C59.9783 80.2032 59.9515 80.1943 59.9255 80.1833C59.9225 80.182 59.9196 80.1802 59.9164 80.179C59.84 80.1459 59.7671 80.1065 59.699 80.0604C59.682 80.0489 59.666 80.0357 59.6494 80.0234C59.6316 80.0103 59.6133 79.9978 59.5963 79.9838C59.5781 79.9689 59.5614 79.9523 59.5442 79.9365C59.53 79.9235 59.5152 79.9113 59.5015 79.8978C59.4891 79.8853 59.478 79.8718 59.4661 79.8588C59.4491 79.8403 59.4315 79.8224 59.4155 79.803C59.4096 79.7959 59.4046 79.7881 59.3989 79.7808C59.3781 79.7545 59.3575 79.7282 59.3388 79.7002C59.3303 79.6876 59.3232 79.6741 59.315 79.6611C59.3003 79.6378 59.2853 79.6147 59.272 79.5904C59.1973 79.453 59.1476 79.3002 59.1252 79.1388C59.1168 79.0786 59.1109 79.0174 59.1109 78.9548V73.8661C59.1109 71.3482 59.8491 68.9102 61.2459 66.8151L63.3589 63.6457L48.7108 39.0531L27.0761 71.0986C26.5708 71.9641 25.7637 72.6318 24.7998 72.9575V75.1591L25.1888 74.1911C25.3207 73.8629 25.5774 73.6007 25.9026 73.4618C26.2279 73.3228 26.595 73.3191 26.923 73.4508L45.1445 80.7708L48.2837 78.1827C48.8519 77.7143 49.6923 77.7952 50.1607 78.3634C50.6292 78.9315 50.5483 79.7719 49.9801 80.2403L40.1387 88.3538C38.3406 89.8361 36.1156 90.6082 33.8626 90.6082C32.6227 90.6082 31.3742 90.3742 30.1842 89.8962L25.6468 88.0734C23.6905 87.2874 22.4206 85.5148 22.1776 83.5573C22.1497 83.4498 22.1331 83.3376 22.1331 83.2213V72.9575C20.4816 72.3996 19.2887 70.8366 19.2887 68.9991C19.2887 68.2359 19.4955 67.5203 19.8544 66.904ZM91.6443 83.3102H100.266C101.1 83.3102 101.778 82.6323 101.778 81.7991V71.8435C101.778 71.0103 101.1 70.3324 100.266 70.3324H91.6443V83.3102ZM26.6409 85.5989L31.1783 87.4217C33.6245 88.4046 36.408 87.9733 38.4423 86.296L42.8007 82.7029L27.1662 76.4222L25.0124 81.7834C24.4094 83.2844 25.1401 84.9961 26.6409 85.5989ZM47.6443 23.3991C46.5468 23.3991 45.5897 24.0058 45.0868 24.9004C45.0668 24.9532 45.0448 25.0055 45.0178 25.0567L44.9319 25.219C44.7902 25.5626 44.7109 25.9383 44.7109 26.3324C44.7109 26.8867 44.8683 27.4037 45.1365 27.8464C45.1451 27.8595 45.1543 27.8718 45.1625 27.8853L45.2183 27.979C45.7467 28.755 46.6368 29.2658 47.6443 29.2658C49.2617 29.2658 50.5776 27.9498 50.5776 26.3324C50.5776 24.715 49.2617 23.3991 47.6443 23.3991ZM64.7109 91.6658C60.7408 91.6658 57.5109 94.8956 57.5109 98.8658C57.5109 102.836 60.7408 106.066 64.7109 106.066H98.8443C102.814 106.066 106.044 102.836 106.044 98.8658C106.044 94.8956 102.814 91.6658 98.8443 91.6658H64.7109ZM86.1332 88.9991V85.9769H77.422V88.9991H86.1332ZM64.622 83.3102H88.9776V69.006C88.9776 69.0037 88.9772 69.0016 88.9772 68.9991C88.9772 68.9966 88.9776 68.9945 88.9776 68.9922V59.0435C88.9776 57.1068 87.7067 55.462 85.9554 54.8976V74.0494C85.9554 75.6359 85.0187 77.0773 83.5691 77.7216C79.7376 79.4245 75.6692 80.288 71.4763 80.288H64.622V83.3102ZM61.7776 73.8659V77.6213H71.4763C73.0656 77.6213 74.6348 77.483 76.1776 77.2121V59.0435C76.1776 58.3072 76.7746 57.7102 77.5109 57.7102C78.2473 57.7102 78.8443 58.3072 78.8443 59.0435V76.6016C80.0804 76.2515 81.296 75.8137 82.4859 75.2848C82.9735 75.0681 83.2887 74.5831 83.2887 74.0494V54.688H74.8665C73.4069 54.688 72.0521 55.4131 71.2425 56.6275L63.4645 68.2942C62.3609 69.9497 61.7776 71.8764 61.7776 73.8659ZM64.998 61.1868L69.0238 55.1482C69.622 54.2508 70.4064 53.5216 71.3056 52.9923L52.8494 28.3938C52.0267 30.4642 50.0043 31.9324 47.6443 31.9324C47.6201 31.9324 47.5961 31.9308 47.5721 31.9306L64.998 61.1868ZM26.8899 66.6087L47.2025 36.5212L42.9388 29.3632C42.9019 29.3059 42.8654 29.2483 42.8304 29.1897L23.9577 64.8514C25.1689 64.9938 26.2226 65.656 26.8899 66.6087ZM23.4665 70.5102C24.2997 70.5102 24.9776 69.8323 24.9776 68.9991C24.9776 68.1658 24.2997 67.488 23.4665 67.488C22.6332 67.488 21.9554 68.1658 21.9554 68.9991C21.9554 69.8323 22.6332 70.5102 23.4665 70.5102Z" stroke="black" stroke-width="2" mask="url(#path-7-outside-1_17_725)"/>
</svg>
