<svg width="128" height="129" viewBox="0 0 128 129" fill="none" xmlns="http://www.w3.org/2000/svg">
<path d="M76.5565 45.3305C76.4159 45.5693 76.2879 45.8017 76.1697 46.0217L76.1688 46.0234C76.0544 46.2367 75.83 46.7716 75.6202 47.272C75.3708 47.867 75.0345 48.6789 74.6422 49.6306C73.8573 51.5354 72.8423 54.0154 71.8386 56.4739C70.8347 58.9329 69.8412 61.3726 69.0987 63.1973C68.7274 64.1097 68.4188 64.8685 68.2031 65.3992L67.9529 66.0149L67.887 66.177L67.8701 66.2186L67.8664 66.2277L67.8658 66.2291L67.8652 66.2305C67.7473 66.5194 67.6517 66.812 67.5777 67.1063C66.5149 66.1799 65.044 65.7741 63.5933 66.1077L63.5917 66.1081L34.5486 72.8076C30.7653 73.6801 29.7689 78.6146 32.9335 80.878C32.9338 80.8781 32.934 80.8783 32.9342 80.8785C32.9347 80.8788 32.9351 80.8791 32.9355 80.8794L37.6163 84.2306C34.4981 85.8273 32.3641 89.072 32.3641 92.8174C32.3641 98.1446 36.6815 102.459 42.0073 102.459C47.3331 102.459 51.6505 98.1446 51.6505 92.8174C51.6505 92.1635 51.5848 91.5218 51.4593 90.9002L56.0062 87.536L62.6298 96.7412C62.6303 96.7419 62.6307 96.7425 62.6312 96.7432C63.4154 97.8364 64.666 98.4484 65.9568 98.4484C66.3067 98.4484 66.6903 98.4035 67.0822 98.2881C68.727 97.8198 69.9069 96.3743 70.0378 94.6698C70.0379 94.6685 70.038 94.6672 70.0381 94.6659L71.4821 76.272L73.0622 75.1253C73.2526 75.1489 73.4436 75.1638 73.6348 75.17C76.2658 75.2647 78.8106 73.7358 79.8695 71.1475C79.8696 71.1473 79.8697 71.147 79.8698 71.1468L81.2341 67.8136L82.3285 71.3505V95.7384C82.3285 99.1073 84.6037 102.378 88.1799 103.088L88.1827 103.089C92.8014 104.001 96.9538 100.474 96.9538 95.9453V70.2478C96.9538 69.5229 96.8343 68.8281 96.6364 68.1847L96.6345 68.1787L89.9764 46.7328C89.3351 44.664 87.8202 42.9343 85.8819 42.0355C87.2704 40.3648 88.1054 38.2177 88.1054 35.8756C88.1054 30.5498 83.788 26.2324 78.4622 26.2324C73.1364 26.2324 68.819 30.5498 68.819 35.8756C68.819 40.549 72.1434 44.4459 76.5565 45.3305ZM62.6222 82.705L62.7728 82.5956L62.7503 82.8828L62.6222 82.705Z" fill="white" stroke="black" stroke-width="5" stroke-linejoin="round"/>
</svg>
