<svg width="128" height="129" viewBox="0 0 128 129" fill="none" xmlns="http://www.w3.org/2000/svg">
<mask id="path-1-outside-1_17_696" maskUnits="userSpaceOnUse" x="22.9961" y="23.7324" width="82" height="82" fill="black">
<rect fill="white" x="22.9961" y="23.7324" width="82" height="82"/>
<path d="M102.072 92.0647H84.8259V84.3052C84.8259 83.273 83.9863 82.4345 82.9559 82.4345H77.1044L88.1398 59.854C88.6699 58.7683 88.6045 57.5107 87.9647 56.4863C87.3259 55.464 86.2232 54.853 85.0168 54.853H74.0179V48.454H75.895C77.1351 48.454 78.1438 47.4455 78.1438 46.2076V30.5026C78.1438 27.3209 75.5547 24.7324 72.3724 24.7324H71.5438C68.3615 24.7324 65.7724 27.3209 65.7724 30.5026V46.2076C65.7724 47.4455 66.7812 48.454 68.0212 48.454H70.9802V54.853H59.8804C58.6917 54.853 57.6 55.4482 56.9572 56.4468C56.3144 57.4455 56.2244 58.6873 56.716 59.767L67.0305 82.4347H60.7469V74.7285C60.7469 73.6667 59.8836 72.8045 58.8226 72.8045H25.9205C24.8594 72.8045 23.9961 73.6667 23.9961 74.7285V102.808C23.9961 103.87 24.8594 104.732 25.9205 104.732H102.072C103.134 104.732 103.996 103.87 103.996 102.808V93.9889C103.996 92.9269 103.134 92.0647 102.072 92.0647ZM68.8102 30.5024C68.8102 28.9956 70.0365 27.7696 71.5436 27.7696H72.3723C73.8794 27.7696 75.1057 28.9956 75.1057 30.5024V32.0409H68.8102V30.5024ZM68.8102 35.0783H75.1057V45.4165H68.8102V35.0783ZM59.5114 58.092C59.5599 58.0168 59.6716 57.8903 59.8803 57.8903H70.98V64.6335C70.98 65.472 71.6595 66.1522 72.499 66.1522C73.3376 66.1522 74.0179 65.472 74.0179 64.6335V57.8903H85.0168C85.2285 57.8903 85.3402 58.0188 85.3887 58.096C85.4362 58.1732 85.5034 58.3313 85.4105 58.5212L72.3933 85.1555C72.1916 85.5709 71.791 85.5629 71.6011 85.1437L59.4809 58.5093C59.3947 58.3195 59.4629 58.1672 59.5114 58.092ZM68.8359 86.4014C69.4075 87.6571 70.6199 88.4382 72.0005 88.4382C73.3395 88.4382 74.5352 87.6907 75.1225 86.4884L75.7406 85.2239C75.973 85.3672 76.231 85.472 76.5238 85.472H81.7878V92.0649H65.5626V85.472H68.4126L68.8359 86.4014ZM62.5246 92.0647H46.2984V85.4719H62.5246V92.0647ZM27.034 92.0647V85.4719H43.2603V92.0647H27.034ZM57.7085 82.4345H41.4823V75.8417H57.7085V82.4345ZM27.034 75.8417H38.4443V82.4345H27.034V75.8417ZM27.034 95.1022H33.6282V101.695H27.034V95.1022ZM36.6661 95.1022H52.8924V101.695H36.6661V95.1022ZM55.9305 95.1022H72.1567V101.695H55.9305V95.1022ZM75.1947 95.1022H91.3261V101.695H75.1947V95.1022ZM100.958 101.695H94.458V95.1022H100.958V101.695Z"/>
</mask>
<path d="M102.072 92.0647H84.8259V84.3052C84.8259 83.273 83.9863 82.4345 82.9559 82.4345H77.1044L88.1398 59.854C88.6699 58.7683 88.6045 57.5107 87.9647 56.4863C87.3259 55.464 86.2232 54.853 85.0168 54.853H74.0179V48.454H75.895C77.1351 48.454 78.1438 47.4455 78.1438 46.2076V30.5026C78.1438 27.3209 75.5547 24.7324 72.3724 24.7324H71.5438C68.3615 24.7324 65.7724 27.3209 65.7724 30.5026V46.2076C65.7724 47.4455 66.7812 48.454 68.0212 48.454H70.9802V54.853H59.8804C58.6917 54.853 57.6 55.4482 56.9572 56.4468C56.3144 57.4455 56.2244 58.6873 56.716 59.767L67.0305 82.4347H60.7469V74.7285C60.7469 73.6667 59.8836 72.8045 58.8226 72.8045H25.9205C24.8594 72.8045 23.9961 73.6667 23.9961 74.7285V102.808C23.9961 103.87 24.8594 104.732 25.9205 104.732H102.072C103.134 104.732 103.996 103.87 103.996 102.808V93.9889C103.996 92.9269 103.134 92.0647 102.072 92.0647ZM68.8102 30.5024C68.8102 28.9956 70.0365 27.7696 71.5436 27.7696H72.3723C73.8794 27.7696 75.1057 28.9956 75.1057 30.5024V32.0409H68.8102V30.5024ZM68.8102 35.0783H75.1057V45.4165H68.8102V35.0783ZM59.5114 58.092C59.5599 58.0168 59.6716 57.8903 59.8803 57.8903H70.98V64.6335C70.98 65.472 71.6595 66.1522 72.499 66.1522C73.3376 66.1522 74.0179 65.472 74.0179 64.6335V57.8903H85.0168C85.2285 57.8903 85.3402 58.0188 85.3887 58.096C85.4362 58.1732 85.5034 58.3313 85.4105 58.5212L72.3933 85.1555C72.1916 85.5709 71.791 85.5629 71.6011 85.1437L59.4809 58.5093C59.3947 58.3195 59.4629 58.1672 59.5114 58.092ZM68.8359 86.4014C69.4075 87.6571 70.6199 88.4382 72.0005 88.4382C73.3395 88.4382 74.5352 87.6907 75.1225 86.4884L75.7406 85.2239C75.973 85.3672 76.231 85.472 76.5238 85.472H81.7878V92.0649H65.5626V85.472H68.4126L68.8359 86.4014ZM62.5246 92.0647H46.2984V85.4719H62.5246V92.0647ZM27.034 92.0647V85.4719H43.2603V92.0647H27.034ZM57.7085 82.4345H41.4823V75.8417H57.7085V82.4345ZM27.034 75.8417H38.4443V82.4345H27.034V75.8417ZM27.034 95.1022H33.6282V101.695H27.034V95.1022ZM36.6661 95.1022H52.8924V101.695H36.6661V95.1022ZM55.9305 95.1022H72.1567V101.695H55.9305V95.1022ZM75.1947 95.1022H91.3261V101.695H75.1947V95.1022ZM100.958 101.695H94.458V95.1022H100.958V101.695Z" fill="black"/>
<path d="M102.072 92.0647H84.8259V84.3052C84.8259 83.273 83.9863 82.4345 82.9559 82.4345H77.1044L88.1398 59.854C88.6699 58.7683 88.6045 57.5107 87.9647 56.4863C87.3259 55.464 86.2232 54.853 85.0168 54.853H74.0179V48.454H75.895C77.1351 48.454 78.1438 47.4455 78.1438 46.2076V30.5026C78.1438 27.3209 75.5547 24.7324 72.3724 24.7324H71.5438C68.3615 24.7324 65.7724 27.3209 65.7724 30.5026V46.2076C65.7724 47.4455 66.7812 48.454 68.0212 48.454H70.9802V54.853H59.8804C58.6917 54.853 57.6 55.4482 56.9572 56.4468C56.3144 57.4455 56.2244 58.6873 56.716 59.767L67.0305 82.4347H60.7469V74.7285C60.7469 73.6667 59.8836 72.8045 58.8226 72.8045H25.9205C24.8594 72.8045 23.9961 73.6667 23.9961 74.7285V102.808C23.9961 103.87 24.8594 104.732 25.9205 104.732H102.072C103.134 104.732 103.996 103.87 103.996 102.808V93.9889C103.996 92.9269 103.134 92.0647 102.072 92.0647ZM68.8102 30.5024C68.8102 28.9956 70.0365 27.7696 71.5436 27.7696H72.3723C73.8794 27.7696 75.1057 28.9956 75.1057 30.5024V32.0409H68.8102V30.5024ZM68.8102 35.0783H75.1057V45.4165H68.8102V35.0783ZM59.5114 58.092C59.5599 58.0168 59.6716 57.8903 59.8803 57.8903H70.98V64.6335C70.98 65.472 71.6595 66.1522 72.499 66.1522C73.3376 66.1522 74.0179 65.472 74.0179 64.6335V57.8903H85.0168C85.2285 57.8903 85.3402 58.0188 85.3887 58.096C85.4362 58.1732 85.5034 58.3313 85.4105 58.5212L72.3933 85.1555C72.1916 85.5709 71.791 85.5629 71.6011 85.1437L59.4809 58.5093C59.3947 58.3195 59.4629 58.1672 59.5114 58.092ZM68.8359 86.4014C69.4075 87.6571 70.6199 88.4382 72.0005 88.4382C73.3395 88.4382 74.5352 87.6907 75.1225 86.4884L75.7406 85.2239C75.973 85.3672 76.231 85.472 76.5238 85.472H81.7878V92.0649H65.5626V85.472H68.4126L68.8359 86.4014ZM62.5246 92.0647H46.2984V85.4719H62.5246V92.0647ZM27.034 92.0647V85.4719H43.2603V92.0647H27.034ZM57.7085 82.4345H41.4823V75.8417H57.7085V82.4345ZM27.034 75.8417H38.4443V82.4345H27.034V75.8417ZM27.034 95.1022H33.6282V101.695H27.034V95.1022ZM36.6661 95.1022H52.8924V101.695H36.6661V95.1022ZM55.9305 95.1022H72.1567V101.695H55.9305V95.1022ZM75.1947 95.1022H91.3261V101.695H75.1947V95.1022ZM100.958 101.695H94.458V95.1022H100.958V101.695Z" stroke="black" stroke-width="2" mask="url(#path-1-outside-1_17_696)"/>
</svg>
